<svg width="12" height="12" viewBox="0 0 22 22" fill="none" xmlns="http://www.w3.org/2000/svg">
<path d="M15.7405 3.50977H6.25906C4.07719 3.50977 2.30844 5.27852 2.30844 7.46038V14.5399C2.30844 16.7218 4.07719 18.4905 6.25906 18.4905H15.7405C17.9224 18.4905 19.6912 16.7218 19.6912 14.5399V7.46038C19.6912 5.27852 17.9224 3.50977 15.7405 3.50977Z" stroke="#F5C249" stroke-width="2" stroke-linecap="round" stroke-linejoin="round"/>
<path d="M10.2097 11.7903L2.30844 7.83964V7.10483C2.30844 6.15136 2.68721 5.23694 3.36141 4.56273C4.03562 3.88853 4.95003 3.50977 5.9035 3.50977H16.0961C17.0496 3.50977 17.964 3.88853 18.6382 4.56273C19.3124 5.23694 19.6912 6.15136 19.6912 7.10483V7.83964L11.7899 11.7903C11.5437 11.9098 11.2735 11.9719 10.9998 11.9719C10.7261 11.9719 10.4559 11.9098 10.2097 11.7903V11.7903Z" stroke="#F5C249" stroke-width="2" stroke-linecap="round" stroke-linejoin="round"/>
</svg>
