<svg width="21" height="24" viewBox="0 0 21 24" fill="none" xmlns="http://www.w3.org/2000/svg">
<path fill-rule="evenodd" clip-rule="evenodd" d="M11.6198 1C11.6198 0.585786 11.284 0.25 10.8698 0.25C10.4556 0.25 10.1198 0.585786 10.1198 1V2.69498C9.04053 2.76176 7.97707 3.00227 6.97007 3.40887C5.71723 3.91473 4.57713 4.66744 3.61603 5.62269C2.65496 6.57792 1.89212 7.71656 1.37161 8.97199C0.851129 10.2274 0.583264 11.5746 0.583442 12.9353V12.9354V17.549H0.583382L0.583502 17.5585C0.590924 18.1438 0.822243 18.7051 1.23131 19.1241C1.64061 19.5434 2.19626 19.7876 2.78224 19.8032L2.79219 19.8034H2.80213H6.07017C6.21447 20.813 6.67764 21.7566 7.40133 22.488C8.28576 23.3819 9.48702 23.8855 10.7413 23.8855C11.9955 23.8855 13.1968 23.3819 14.0812 22.488C14.8049 21.7566 15.2681 20.813 15.4124 19.8034H18.6798H18.6898L18.6997 19.8032C19.2857 19.7876 19.8414 19.5434 20.2507 19.1241C20.6597 18.7051 20.891 18.1438 20.8985 17.5585H20.8985V17.549V13.0978C20.913 10.3917 19.8792 7.78576 18.0159 5.83783C16.3143 4.05906 14.0443 2.958 11.6198 2.72141V1ZM10.8323 4.17627C10.8447 4.17688 10.8572 4.17719 10.8698 4.17719C10.875 4.17719 10.8802 4.17714 10.8853 4.17703C13.1702 4.24386 15.3405 5.21103 16.9319 6.87469C18.5252 8.54029 19.4114 10.7717 19.3985 13.0916L20.1485 13.0958H19.3985V17.5435C19.395 17.7446 19.315 17.9353 19.1773 18.0763C19.041 18.2159 18.8587 18.2963 18.6682 18.3034H2.81381C2.62332 18.2963 2.44101 18.2159 2.30465 18.0763C2.167 17.9353 2.087 17.7446 2.08344 17.5434V12.9353V12.9352C2.08328 11.7714 2.3124 10.6194 2.75724 9.54648C3.20208 8.47356 3.85361 7.50143 4.67345 6.68658C5.49328 5.87174 6.46498 5.23047 7.53167 4.79977C8.58143 4.3759 9.70276 4.16421 10.8323 4.17627ZM7.59252 19.8034C7.72154 20.4168 8.02348 20.9841 8.46761 21.433C9.072 22.0438 9.89002 22.3855 10.7413 22.3855C11.5925 22.3855 12.4106 22.0438 13.0149 21.433C13.4591 20.9841 13.761 20.4168 13.89 19.8034H7.59252ZM10.4166 7.4691C10.4166 7.05489 10.7524 6.7191 11.1666 6.7191C12.4656 6.7191 13.7097 7.24073 14.6258 8.1666C15.5416 9.0922 16.0547 10.3459 16.0547 11.6515C16.0547 12.0657 15.7189 12.4015 15.3047 12.4015C14.8905 12.4015 14.5547 12.0657 14.5547 11.6515C14.5547 10.7386 14.1958 9.8647 13.5595 9.2216C12.9235 8.57877 12.0626 8.2191 11.1666 8.2191C10.7524 8.2191 10.4166 7.88332 10.4166 7.4691Z" fill="#ffc107"/>
</svg>
