<svg xmlns="http://www.w3.org/2000/svg" width="313.5" height="104.5" viewBox="0 0 1254 418">
  <defs>
    <style>
      .cls-1 {
        fill: #0053b0;
      }

      .cls-2 {
        fill: #ffd200;
      }

      .cls-2, .cls-3 {
        fill-rule: evenodd;
      }

      .cls-3, .cls-4 {
        fill: #fff;
      }

      .cls-4 {
        font-size: 145.833px;
        font-family: TypoGraphica;
      }

      .cls-5 {
        fill: #ebba00;
      }
    </style>
  </defs>
  <circle class="cls-1" cx="224.5" cy="223.5" r="177.5"/>
  <path id="b" class="cls-2" d="M190.034,227.308a34.921,34.921,0,0,1,5.543-19.173,40.963,40.963,0,0,1,14.829-14.081,39.63,39.63,0,0,1,39.4,0,41,41,0,0,1,14.829,14.081,34.938,34.938,0,0,1,5.543,19.173q0,16.031-11.984,27.562a39.962,39.962,0,0,1-56.172,0q-11.987-11.532-11.984-27.562h0ZM142.25,241.357a74.841,74.841,0,0,0,12.134,41.193,83.5,83.5,0,0,0,32.355,29.359,92.628,92.628,0,0,0,76.544,4.644,85.647,85.647,0,0,0,28.311-17.226,82.992,82.992,0,0,0,19.473-26.364,79.68,79.68,0,0,0-.15-65.16,80.217,80.217,0,0,0-19.323-26.214,87.025,87.025,0,0,0-28.311-17.226,97.139,97.139,0,0,0-66.358,0l-3.445,1.5-3.446,1.5V104.147S189.957,83,165,83c-22.887,0-22.75,21.3-22.75,21.3V241.357Z"/>
  <path class="cls-3" d="M230.6,217.011a14.758,14.758,0,1,1-14.758,14.758A14.758,14.758,0,0,1,230.6,217.011Z"/>
  <text id="bitscard.co" class="cls-4" x="481.001" y="285">bitscard<tspan class="cls-5">.<tspan class="cls-1">co</tspan></tspan></text>
</svg>
