<svg width="80" height="80" viewBox="0 0 80 80" fill="none" xmlns="http://www.w3.org/2000/svg">
<circle cx="40" cy="40" r="40" fill="#21242D"/>
<path fill-rule="evenodd" clip-rule="evenodd" d="M57.113 52.5C57.0801 52.5 57.0476 52.4988 57.0153 52.4965H24.175C24.1428 52.4988 24.1102 52.5 24.0773 52.5C24.0444 52.5 24.0118 52.4988 23.9796 52.4965H20.506C19.7667 52.4965 19.1667 51.8965 19.1667 51.1572C19.1667 50.4179 19.7667 49.8179 20.506 49.8179H22.738V30.625C22.738 28.9018 24.1398 27.5 25.863 27.5H55.3273C57.0505 27.5 58.4523 28.9018 58.4523 30.625V49.8179H60.6846C61.4239 49.8179 62.0239 50.4179 62.0239 51.1572C62.0239 51.8965 61.4239 52.4965 60.6846 52.4965H57.2107C57.1785 52.4988 57.1459 52.5 57.113 52.5ZM55.7737 30.625V49.8179H25.4166V30.625C25.4166 30.3786 25.6166 30.1786 25.863 30.1786H55.3273C55.5737 30.1786 55.7737 30.3786 55.7737 30.625ZM42.8273 45.3554H44.1666C47.1202 45.3554 49.5237 42.9518 49.5237 39.9983C49.5237 37.0447 47.1202 34.6411 44.1666 34.6411H42.8273C42.088 34.6411 41.488 35.2411 41.488 35.9804V44.0161C41.488 44.7554 42.088 45.3554 42.8273 45.3554ZM44.1666 42.6768V37.3197C45.6434 37.3197 46.8452 38.5215 46.8452 39.9983C46.8452 41.475 45.6434 42.6768 44.1666 42.6768ZM37.4705 45.3554C36.7313 45.3554 36.1313 44.7554 36.1313 44.0161V42.6768H34.3455V44.0161C34.3455 44.7554 33.7455 45.3554 33.0063 45.3554C32.267 45.3554 31.667 44.7554 31.667 44.0161V41.3375V38.2125C31.667 36.2429 33.2688 34.6411 35.2384 34.6411C37.208 34.6411 38.8098 36.2429 38.8098 38.2125V41.3375V44.0161C38.8098 44.7554 38.2098 45.3554 37.4705 45.3554ZM34.3455 38.2125V39.9982H36.1313V38.2125C36.1313 37.7215 35.7313 37.3197 35.2384 37.3197C34.7455 37.3197 34.3455 37.7215 34.3455 38.2125Z" fill="#338AF3"/>
</svg>
