<svg width="80" height="80" viewBox="0 0 80 80" fill="none" xmlns="http://www.w3.org/2000/svg">
<circle cx="40" cy="40" r="40" fill="#21242D"/>
<path d="M52.7389 28.7315L39.9785 23.4335C39.6589 23.3008 39.2996 23.3008 38.98 23.4335L26.2195 28.7315C25.7335 28.9333 25.4167 29.4078 25.4167 29.934V36.3745C25.4167 45.2425 30.7767 53.2195 38.9872 56.5708C39.3026 56.6995 39.6559 56.6995 39.9713 56.5708C48.1817 53.2196 53.5417 45.2426 53.5417 36.3745V29.934C53.5417 29.4078 53.225 28.9333 52.7389 28.7315ZM50.9376 36.3745C50.9376 43.9132 46.5105 50.8531 39.4792 53.9509C32.6359 50.9359 28.0209 44.1175 28.0209 36.3745V30.8033L39.4792 26.0459L50.9376 30.8033V36.3745ZM38.0401 40.7634L43.6367 35.1669C44.1451 34.6584 44.9695 34.6583 45.4781 35.1669C45.9866 35.6754 45.9865 36.4998 45.478 37.0083L38.9608 43.5255C38.4522 44.0341 37.6278 44.0339 37.1194 43.5255L33.4804 39.8866C32.9719 39.378 32.9719 38.5536 33.4804 38.0452C33.9889 37.5367 34.8134 37.5366 35.3218 38.0452L38.0401 40.7634Z" fill="#338AF3"/>
</svg>
