<svg width="80" height="80" viewBox="0 0 80 80" fill="none" xmlns="http://www.w3.org/2000/svg">
<circle cx="40" cy="40" r="40" fill="#21242D"/>
<path d="M30.8673 34.7425L28.9794 36.6305C30.838 30.5403 37.2818 27.11 43.3719 28.9686C45.6928 29.6769 47.7311 31.0995 49.1965 33.0338L50.8673 31.7678C46.3292 25.7684 37.7869 24.5836 31.7873 29.1217C29.3006 31.0026 27.5346 33.6797 26.7841 36.706L24.8164 34.7425L23.3333 36.2246L27.8434 40.7347L32.3536 36.2246L30.8673 34.7425Z" fill="#338AF3"/>
<path d="M52.1565 39.2441L47.6463 43.7543L49.1294 45.2374L51.0394 43.3285C49.1971 49.4284 42.7587 52.8799 36.6588 51.0377C34.2325 50.3049 32.1151 48.7936 30.6335 46.7373L28.9312 47.9624C31.035 50.9037 34.2271 52.8822 37.7973 53.4575C38.529 53.5763 39.2692 53.6363 40.0104 53.6368C46.2721 53.6339 51.7231 49.3572 53.2158 43.276L55.1793 45.2374L56.6666 43.7543L52.1565 39.2441ZM52.104 42.266L52.1575 42.2125L52.2351 42.2911L52.104 42.266Z" fill="#338AF3"/>
</svg>
